<svg version="1.1" xmlns="http://www.w3.org/2000/svg" xmlns:xlink="http://www.w3.org/1999/xlink" width="273.86788" height="67.909" viewBox="0,0,273.86788,67.909"><g transform="translate(-195.169,-135.583)"><g data-paper-data="{&quot;isPaintingLayer&quot;:true}" fill-rule="nonzero" stroke-linejoin="miter" stroke-miterlimit="10" stroke-dasharray="" stroke-dashoffset="0" style="mix-blend-mode: normal"><path d="M286.17,194.887c0,4.752 -3.854,8.605 -8.605,8.605h-73.792c-4.752,0 -8.604,-3.854 -8.604,-8.605v-37.463c0,-4.752 3.852,-9.27067 8.604,-9.27067c0,0 12.57592,-0.28661 22.34061,-0.3283c0.39762,-0.0017 1.56917,0.26237 2.3736,0.66406c0.74521,0.37212 1.12809,0.86235 1.43814,1.36881c0.29038,0.47433 0.72625,1.62921 1.47141,2.0476c1.15656,0.64938 2.74509,0.46389 3.27179,0.46389c15.43161,0 42.89544,0 42.89544,0c4.754,0 8.605,2.36826 8.605,7.12026v35.39734z" fill="#ffb900" stroke="none" stroke-width="1" stroke-linecap="butt"/><path d="M284.205,140.774v9.462c0,0 -38.23846,-0.05119 -43.07764,-0.05765c-0.97794,-0.00131 -3.74174,-0.05167 -4.48886,-0.71906c-1.14805,-1.02554 -1.53067,-2.8299 -3.18725,-2.84848c-6.55697,-0.07354 -29.16825,-0.37481 -29.16825,-0.37481v-5.463c0,-2.862 2.579,-5.19 5.44,-5.19h69.291c2.864,0 5.191,2.329 5.191,5.191z" fill="#2685e0" stroke="none" stroke-width="1" stroke-linecap="butt"/><path d="M297.0771,145.05v49.5" fill="none" stroke="#000000" stroke-width="0.5" stroke-linecap="round"/><text transform="translate(305.8271,164.28743) scale(0.55277,0.55277)" font-size="40" xml:space="preserve" fill="#000000" fill-rule="nonzero" stroke="none" stroke-width="1" stroke-linecap="butt" stroke-linejoin="miter" stroke-miterlimit="10" stroke-dasharray="" stroke-dashoffset="0" font-family="Sans Serif" font-weight="normal" text-anchor="start" style="mix-blend-mode: normal"><tspan x="0" dy="0">EmptyCase</tspan></text><text transform="translate(307.65826,190.93137) scale(0.40194,0.40194)" font-size="40" xml:space="preserve" fill="#000000" fill-rule="nonzero" stroke="none" stroke-width="1" stroke-linecap="butt" stroke-linejoin="miter" stroke-miterlimit="10" stroke-dasharray="" stroke-dashoffset="0" font-family="Sans Serif" font-weight="normal" text-anchor="start" style="mix-blend-mode: normal"><tspan x="0" dy="0">一个一点也不空的盒子</tspan></text></g></g></svg>